<svg width="600" height="600" xmlns="http://www.w3.org/2000/svg">

 <g>
  <title>background</title>
  <rect fill="none" id="canvas_background" height="602" width="602" y="-1" x="-1"/>
 </g>
 <g>
  <title>Layer 1</title>
  <path stroke="null" fill="#f99132" transform="rotate(-45 299.982696533203,365.217559814453) " id="svg_1" d="m512.976559,162.667509c-1.111446,-5.215246 -5.215246,-9.319047 -10.430493,-10.430493c-27.529661,-5.899213 -49.074613,-5.899213 -70.534069,-5.899213c-88.231708,0 -141.153634,47.193705 -180.652713,109.434677l-89.086667,0c-15.560243,0 -29.752553,8.806072 -36.677716,22.656398l-42.234946,84.469891c-6.839667,13.679335 3.07785,29.667057 18.381606,29.667057l81.306545,0c-5.044255,10.943468 -10.174005,21.80144 -15.389251,32.231932c-2.650371,5.300742 -1.624421,11.627434 2.564875,15.816731l54.375355,54.375355c4.189296,4.189296 10.515989,5.215246 15.816731,2.564875c10.430493,-5.215246 21.288465,-10.259501 32.231932,-15.303756l0,81.306545c0,15.21826 16.073218,25.135777 29.667057,18.381606l84.384396,-42.234946c13.935822,-6.925163 22.656398,-21.202969 22.656398,-36.677716l0,-89.257659c62.069981,-39.584575 109.434677,-92.677492 109.434677,-180.481721c0.085496,-21.544952 0.085496,-43.089904 -5.813717,-70.619565zm-89.856129,120.463641c-22.656398,0 -41.038004,-18.381606 -41.038004,-41.038004s18.381606,-41.038004 41.038004,-41.038004s41.038004,18.381606 41.038004,41.038004s-18.381606,41.038004 -41.038004,41.038004z"/>
 </g>
</svg>