<svg width="600" height="600" xmlns="http://www.w3.org/2000/svg">
 <g>
  <title>background</title>
  <rect x="-1" y="-1" width="602" height="602" id="canvas_background" fill="none"/>
 </g>

 <g>
  <title>Layer 1</title>
  <path stroke="null" d="m465.146035,193.509798c-0.861839,-4.044004 -4.044004,-7.226168 -8.088,-8.088c-21.347029,-4.574367 -38.053393,-4.574367 -54.693458,-4.574367c-68.416544,0 -109.453214,36.594899 -140.081551,84.85773l-69.079489,0c-12.065713,0 -23.0707,6.828394 -28.440601,17.568203l-32.749783,65.499557c-5.303602,10.607212 2.386623,23.004402 14.25345,23.004402l63.046643,0c-3.911415,8.485767 -7.889121,16.905251 -11.933125,24.993251c-2.055147,4.110294 -1.259606,9.01613 1.988857,12.264593l42.163679,42.163679c3.248463,3.248463 8.154298,4.044004 12.264601,1.988857c8.088,-4.044004 16.507476,-7.955411 24.993251,-11.866826l0,63.046643c0,11.800528 12.46348,19.490754 23.004394,14.253442l65.433267,-32.749775c10.8061,-5.369908 17.568203,-16.441186 17.568203,-28.440601l0,-69.212085c48.130242,-30.694628 84.85773,-71.863886 84.85773,-139.948954c0.066291,-16.706364 0.066291,-33.412727 -4.508069,-54.759748zm-69.67615,93.409795c-17.568203,0 -31.821645,-14.25345 -31.821645,-31.821645s14.253442,-31.821653 31.821645,-31.821653s31.821645,14.25345 31.821645,31.821653s-14.253442,31.821645 -31.821645,31.821645z" id="svg_1" transform="rotate(-45 299.9865722656248,350.5709228515624) " fill="#f99132"/>
 </g>
</svg>