<svg width="550" height="550" xmlns="http://www.w3.org/2000/svg">

 <g>
  <title>background</title>
  <rect fill="none" id="canvas_background" height="552" width="552" y="-1" x="-1"/>
 </g>
 <g>
  <title>Layer 1</title>
  <path transform="rotate(-45 274.97976684570307,351.28152465820307) " id="svg_1" d="m524.107481,114.369388c-1.3,-6.1 -6.1,-10.9 -12.2,-12.2c-32.2,-6.9 -57.4,-6.9 -82.5,-6.9c-103.2,0 -165.1,55.2 -211.3,128l-104.2,0c-18.2,0 -34.8,10.3 -42.9,26.5l-49.4,98.8c-8,16 3.6,34.7 21.5,34.7l95.1,0c-5.9,12.8 -11.9,25.5 -18,37.7c-3.1,6.2 -1.9,13.6 3,18.5l63.6,63.6c4.9,4.9 12.3,6.1 18.5,3c12.2,-6.1 24.9,-12 37.7,-17.9l0,95.1c0,17.8 18.8,29.4 34.7,21.5l98.7,-49.4c16.3,-8.1 26.5,-24.8 26.5,-42.9l0,-104.4c72.6,-46.3 128,-108.4 128,-211.1c0.1,-25.2 0.1,-50.4 -6.8,-82.6zm-105.1,140.9c-26.5,0 -48,-21.5 -48,-48s21.5,-48 48,-48s48,21.5 48,48s-21.5,48 -48,48z" fill="#f99132"/>
 </g>
</svg>