<svg width="600" height="600" xmlns="http://www.w3.org/2000/svg">

 <g>
  <title>background</title>
  <rect fill="none" id="canvas_background" height="602" width="602" y="-1" x="-1"/>
 </g>
 <g>
  <title>Layer 1</title>
  <path stroke="null" transform="rotate(-45 329.02215576171886,270.9778442382813) " id="svg_1" d="m480.307441,244.474989c-18.241095,-8.550878 -42.636181,-13.454535 -66.930818,-13.454535l-158.538088,0c-2.748179,-3.637786 -5.874289,-6.647353 -9.27899,-8.879416l114.540581,0c-81.492505,-16.789311 -86.905619,-75.475036 -155.388115,-75.475036l-0.001665,0l0,71.035328l-8.879416,0l0,-71.035328c-14.712082,0 -26.638248,15.901924 -26.638248,35.517664l0,35.517664c-12.873488,0 -17.758832,5.567394 -17.758832,13.319124l0,22.19854c0,7.760055 4.894223,13.319124 17.758832,13.319124l0,8.879416c-12.873488,0 -17.758832,5.567394 -17.758832,13.319124l0,22.19854c0,7.760055 4.894223,13.319124 17.758832,13.319124l0,35.517664c0,19.61574 11.926166,35.517664 26.638248,35.517664l0,-71.035328l8.879416,0l0,71.035328l0.001665,0c68.482496,0 73.89561,-58.685725 155.388115,-75.475036l-114.541136,0c3.404701,-2.232063 6.53081,-5.24163 9.27899,-8.879416l158.538643,0c24.294637,0 48.689723,-4.903657 66.930818,-13.454535c16.470207,-7.720097 26.30305,-17.627861 26.30305,-26.502837s-9.832843,-18.78274 -26.30305,-26.502837zm-58.051402,48.701377a4.439708,4.439708 0 0 1 -4.439708,-4.439708l0,-35.517664a4.439708,4.439708 0 0 1 4.439708,-4.439708c17.70833,0 17.726644,44.39708 0,44.39708z"/>
 </g>
</svg>