<svg width="550" height="550" xmlns="http://www.w3.org/2000/svg">
 <g>
  <title>background</title>
  <rect x="-1" y="-1" width="552" height="552" id="canvas_background" fill="none"/>
 </g>

 <g>
  <title>Layer 1</title>
  <path stroke="null" fill="#a8ff94" d="m246.729148,40.343147l-64.323546,130.420196l-143.915343,20.9815c-25.808227,3.743183 -36.151211,35.560191 -17.435323,53.783556l104.119445,101.459819l-24.626173,143.324309c-4.432714,25.906738 22.853084,45.312156 45.706169,33.196083l128.745618,-67.672717l128.745618,67.672717c22.853084,12.017562 50.138883,-7.289346 45.706169,-33.196083l-24.626158,-143.324309l104.119445,-101.459819c18.715888,-18.223364 8.372889,-50.040372 -17.435338,-53.783556l-143.915329,-20.9815l-64.323561,-130.420196c-11.525038,-23.247098 -44.918128,-23.542615 -56.541677,0l-0.000015,0z" id="svg_1"/>
 </g>
</svg>